No Love Lost (2010) [BluRay 1080px264]
 
http://www.imagengratis.org/images/noltgwg9e.jpg 
http://www.adultdvdemart.com/-/adult_dvd_product_info/filmid=DIPL00283.html/-09B32B6C-3596-4EE2-9BBD-1824D70E2572 
http://www.jadedvideo.com/Digital_Playground/No_Love_Lost_DVD.5-55651.html

Studio  Digital Playground 
Release Date  Jan 06, 2010 
Category  Feature, HD - Shot In High Def, Blu-ray 
Director  Robby D 
Starring  Alexis Texas, Kristina Rose, Charles Dera, Sadie West, Raven Alexis, Kerry-Louise, James Deen, Mick Blue, Scott Nails 

Raven Alexis arrives in the land of opportunity to escape from an abusive lover. Her innocence and girl-next-door looks are only a disguise as she quickly loses her inhibitions. Alexis gives Charles a quick cock-teasing before letting him ...    Full Descriptionthrust deep inside her. Raven holds out until the third scene, when she bares her clean snatch for Mick to please. Charles gives Sadie a finger-fucking for the books before returning the favor with her deep-throating abilities. Packed with generous helpings of pussy licking, blow jobs and facials; Kristina Rose's final anal scene provides pleasure that lingers for hours. It's evident that Raven will have no problems moving on from an abusive lover to provide Digital Playground viewers the pleasure they yearn for.

=====================================
<<<<<<<<<<<<<<<<<<>>>>>>>>>>>>>>>>>>>>
=====================================

Format : Matroska
File size : 5.00 GiB
Duration : 1h 37mn
Overall bit rate : 7 309 Kbps
Encoded date : UTC 2010-02-27 10:44:33
Writing application : mkvmerge v3.2.0 ('Beginnings') gebaut am Feb 12 2010 16:46:17
Writing library : libebml v0.7.9 + libmatroska v0.8.1

Video
ID : 1
Format : AVC
Format/Info : Advanced Video Codec
Format profile : High@L4.1
Format settings, CABAC : Yes
Format settings, ReFrames : 4 frames
Muxing mode : Container profile=Unknown@4.1
Codec ID : V_MPEG4/ISO/AVC
Duration : 1h 37mn
Bit rate : 6 716 Kbps
Width : 1 920 pixels
Height : 1 080 pixels
Display aspect ratio : 16:9
Frame rate : 23.976 fps
Resolution : 8 bits
Colorimetry : 4:2:0
Scan type : Progressive
Bits/(Pixel*Frame) : 0.135
Stream size : 4.59 GiB (92%)
Writing library : x264 core 88 r1471 1144615
Language : English

Audio
ID : 2
Format : AC-3
Format/Info : Audio Coding 3
Codec ID : A_AC3
Duration : 1h 37mn
Bit rate mode : Constant
Bit rate : 448 Kbps
Channel(s) : 6 channels
Channel positions : Front: L C R, Surround: L R, LFE
Sampling rate : 48.0 KHz
Stream size : 314 MiB (6%)
Title : English
Language : English


